<svg width="19" height="18" viewBox="0 0 19 18" fill="none" xmlns="http://www.w3.org/2000/svg">
<path d="M9.25977 17.9991C14.2223 17.9991 18.2598 13.9618 18.2598 8.99957C18.2598 4.03734 14.2221 0 9.25977 0C4.2974 0 0.259766 4.03734 0.259766 8.99957C0.259766 13.9618 4.2974 17.9991 9.25977 17.9991ZM4.97923 8.51799H8.77823V4.71869C8.77823 4.45281 8.99405 4.23715 9.25977 4.23715C9.52565 4.23715 9.74131 4.45299 9.74131 4.71869V8.51799H13.5403C13.8062 8.51799 14.0219 8.73382 14.0219 8.99953C14.0219 9.26541 13.806 9.48107 13.5403 9.48107H9.74131V13.2802C9.74131 13.5461 9.52548 13.7618 9.25977 13.7618C8.99388 13.7618 8.77823 13.5459 8.77823 13.2802V9.48107H4.97923C4.71335 9.48107 4.49769 9.26524 4.49769 8.99953C4.49769 8.73364 4.71319 8.51799 4.97923 8.51799Z" fill="white"/>
</svg>
