<svg width="22" height="22" viewBox="0 0 22 22" fill="none" xmlns="http://www.w3.org/2000/svg">
<path fill-rule="evenodd" clip-rule="evenodd" d="M2.95029 9.95423V4.04819C2.95029 2.93102 3.81645 2.01634 4.91381 1.93913C4.95694 1.93607 5.16907 1.93607 5.20928 1.93913C6.22112 2.01271 7.01951 2.85728 7.01951 3.88837V4.43384C7.01951 4.61392 7.16579 4.7602 7.34586 4.7602C7.52579 4.7602 7.67221 4.61392 7.67221 4.43384V3.88837C7.67221 2.51288 6.60704 1.38638 5.25661 1.28818C5.20372 1.28425 4.92487 1.2841 4.86805 1.28803C3.43195 1.38914 2.29773 2.58632 2.29773 4.04834V9.95438C2.29773 10.1345 2.44401 10.2807 2.62409 10.2807C2.80416 10.2807 2.95029 10.1343 2.95029 9.95423Z" fill="black"/>
<path fill-rule="evenodd" clip-rule="evenodd" d="M5.38284 6.87703C6.19932 6.87703 8.49337 6.87703 9.31026 6.87397C9.48407 6.87397 9.64856 6.78918 9.74996 6.6464C9.85136 6.50362 9.87744 6.32048 9.81974 6.15512C9.81916 6.15337 9.81843 6.15162 9.81785 6.14987C9.40146 5.01741 8.44396 4.24219 7.34604 4.24219C6.24838 4.24219 5.29103 5.01697 4.87117 6.14786C4.87059 6.14975 4.86971 6.15194 4.86898 6.15398C4.81114 6.32036 4.83722 6.50451 4.93921 6.64832C5.04149 6.79197 5.20672 6.87703 5.38284 6.87703ZM9.14354 6.22172L8.93811 6.22216C8.40722 6.22303 7.87614 6.22347 7.34525 6.2239L5.54405 6.22434C5.88715 5.4424 6.5594 4.89502 7.34596 4.89502C8.13111 4.89502 8.80234 5.44068 9.14354 6.22172Z" fill="black"/>
<path fill-rule="evenodd" clip-rule="evenodd" d="M16.0259 17.1811L16.6841 19.7054C16.7095 19.8032 16.6881 19.9073 16.6264 19.9872C16.5646 20.0673 16.4693 20.1141 16.368 20.1141H16.0411C15.9193 20.1141 15.8074 20.0462 15.7513 19.9378L14.5051 17.5308C14.4222 17.3708 14.225 17.3082 14.0651 17.3911C13.9051 17.474 13.8425 17.6711 13.9254 17.8311L15.1716 20.238C15.34 20.5629 15.6753 20.7668 16.041 20.7668H16.3679C16.6712 20.7668 16.9572 20.6265 17.1427 20.3865C17.328 20.1466 17.3918 19.8343 17.3155 19.5408L16.6574 17.0165C16.6119 16.8422 16.4334 16.7376 16.2592 16.7831C16.0849 16.8285 15.9804 17.0068 16.0259 17.1811ZM3.83077 18.3145L3.51097 19.5406C3.43463 19.8342 3.4983 20.1463 3.68377 20.3864C3.86909 20.6263 4.15524 20.7666 4.45854 20.7666H4.78548C5.15117 20.7666 5.48656 20.5628 5.65484 20.2379L6.9011 17.8309C6.984 17.6709 6.92135 17.4738 6.76138 17.3909C6.60141 17.308 6.40429 17.3707 6.32138 17.5306L5.07513 19.9376C5.01903 20.046 4.90714 20.1139 4.78534 20.1139H4.45841C4.3573 20.1139 4.26202 20.0671 4.2001 19.987C4.13832 19.9072 4.11705 19.803 4.1424 19.7052L4.4622 18.4791C4.50765 18.3048 4.40305 18.1264 4.2288 18.0809C4.05455 18.0354 3.87623 18.1402 3.83077 18.3145Z" fill="black"/>
<path fill-rule="evenodd" clip-rule="evenodd" d="M1.47893 13.1334C1.74759 15.8711 4.05611 18.01 6.86431 18.01H13.9688C16.9572 18.01 19.3802 15.5871 19.3802 12.5985V11.8C19.3802 11.6199 19.234 11.4736 19.0539 11.4736C18.8738 11.4736 18.7275 11.6199 18.7275 11.8V12.5985C18.7275 15.2265 16.5969 17.3573 13.9688 17.3573H6.86431C4.39511 17.3573 2.36512 15.4767 2.12866 13.0696C2.11103 12.8902 1.95106 12.7591 1.77185 12.7767C1.59251 12.7944 1.4613 12.9541 1.47893 13.1334Z" fill="black"/>
<path fill-rule="evenodd" clip-rule="evenodd" d="M11.9941 10.0431V14.257C11.9941 14.7977 12.4323 15.2361 12.9731 15.2361H16.0713C16.6119 15.2361 17.0503 14.7977 17.0503 14.257V10.0431C17.0503 9.86307 16.9039 9.7168 16.724 9.7168C16.5439 9.7168 16.3976 9.86307 16.3976 10.0431V14.257C16.3976 14.4371 16.2513 14.5834 16.0713 14.5834H12.9731C12.7928 14.5834 12.6468 14.4371 12.6468 14.257V10.0431C12.6468 9.86307 12.5003 9.7168 12.3204 9.7168C12.1403 9.7168 11.9941 9.86307 11.9941 10.0431Z" fill="black"/>
<path fill-rule="evenodd" clip-rule="evenodd" d="M16.7241 13.2197H12.3204C12.1403 13.2197 11.9941 13.366 11.9941 13.5461C11.9941 13.7262 12.1403 13.8724 12.3204 13.8724H16.7241C16.904 13.8724 17.0505 13.7262 17.0505 13.5461C17.0505 13.366 16.904 13.2197 16.7241 13.2197Z" fill="black"/>
<path fill-rule="evenodd" clip-rule="evenodd" d="M5.21133 7.64457L4.66921 8.62975C4.58238 8.78753 4.64007 8.98611 4.79786 9.07295C4.95564 9.15993 5.15422 9.10238 5.24106 8.9446L5.78348 7.95927C5.87031 7.80149 5.81262 7.60291 5.65483 7.51607C5.4969 7.42924 5.29803 7.48649 5.21133 7.64457Z" fill="black"/>
<path fill-rule="evenodd" clip-rule="evenodd" d="M8.91237 7.95932L9.45449 8.94464C9.54132 9.10243 9.7399 9.15998 9.89769 9.073C10.0555 8.98617 10.1131 8.78759 10.0263 8.62979L9.48422 7.64462C9.39739 7.48669 9.19881 7.42929 9.04087 7.51598C8.88308 7.60281 8.82539 7.80153 8.91237 7.95932Z" fill="black"/>
<path fill-rule="evenodd" clip-rule="evenodd" d="M7.01941 7.80194V8.78711C7.01941 8.96719 7.16569 9.11346 7.34577 9.11346C7.5257 9.11346 7.67212 8.96719 7.67212 8.78711V7.80194C7.67212 7.62186 7.5257 7.47559 7.34577 7.47559C7.16569 7.47559 7.01941 7.62186 7.01941 7.80194Z" fill="black"/>
<path fill-rule="evenodd" clip-rule="evenodd" d="M19.7042 4.56633V1.2617C19.7042 1.05963 19.624 0.866017 19.4812 0.723206C19.3383 0.580282 19.1446 0.500148 18.9427 0.500148H18.3694C18.1675 0.500148 17.9737 0.580278 17.8309 0.723206C17.6881 0.865984 17.6078 1.05961 17.6078 1.2617V4.56633C17.6078 4.7464 17.7541 4.89268 17.9342 4.89268C18.1143 4.89268 18.2605 4.7464 18.2605 4.56633V1.2617C18.2605 1.23271 18.2719 1.20518 18.2923 1.18463C18.3127 1.16424 18.3404 1.15287 18.3694 1.15287H18.9427C18.9717 1.15287 18.9992 1.16424 19.0194 1.18463C19.0398 1.20503 19.0515 1.23271 19.0515 1.2617V4.56633C19.0515 4.7464 19.1978 4.89268 19.3778 4.89268C19.5579 4.89268 19.7042 4.7464 19.7042 4.56633ZM17.1409 4.56633V2.52881C17.1409 2.10821 16.8 1.76727 16.3794 1.76727H16.375C16.3463 1.76727 16.3186 1.75576 16.2982 1.73522C16.2778 1.71482 16.2662 1.68714 16.2662 1.65844V1.26156C16.2662 1.05948 16.186 0.865869 16.0431 0.723057C15.9003 0.580133 15.7067 0.5 15.5046 0.5H14.9418C14.7399 0.5 14.5461 0.58013 14.4033 0.723057C14.2605 0.865835 14.1802 1.05946 14.1802 1.26156V1.65844C14.1802 1.68714 14.1687 1.71482 14.1482 1.73522C14.1279 1.75562 14.1001 1.76727 14.0714 1.76727H14.067C13.6464 1.76727 13.3055 2.10819 13.3055 2.52881V4.56633C13.3055 4.7464 13.4518 4.89268 13.6318 4.89268C13.8119 4.89268 13.9582 4.7464 13.9582 4.56633V2.52881C13.9582 2.46849 14.007 2.41998 14.067 2.41998H14.0714C14.2733 2.41998 14.4669 2.3397 14.6099 2.19677C14.7527 2.054 14.833 1.86037 14.833 1.65842V1.26154C14.833 1.23255 14.8445 1.20501 14.8647 1.18447C14.8851 1.16407 14.9128 1.15271 14.9418 1.15271H15.5046C15.5336 1.15271 15.5611 1.16407 15.5817 1.18447C15.6021 1.20487 15.6134 1.23255 15.6134 1.26154V1.65842C15.6134 1.86035 15.6937 2.05396 15.8366 2.19677C15.9794 2.3397 16.173 2.41998 16.375 2.41998H16.3794C16.4394 2.41998 16.4882 2.46849 16.4882 2.52852V4.56634C16.4882 4.74641 16.6345 4.89269 16.8145 4.89269C16.9946 4.89269 17.1409 4.7464 17.1409 4.56633Z" fill="black"/>
<path fill-rule="evenodd" clip-rule="evenodd" d="M20.7506 5.00374C20.7506 4.80167 20.6704 4.60806 20.5276 4.46524C20.3846 4.32232 20.191 4.24219 19.9891 4.24219H12.9041C12.702 4.24219 12.5084 4.32232 12.3656 4.46524C12.2226 4.60802 12.1425 4.80165 12.1425 5.00374V5.57704C12.1425 5.77897 12.2226 5.97258 12.3656 6.11554C12.5083 6.25832 12.702 6.3386 12.9041 6.3386H19.9891C20.191 6.3386 20.3846 6.25832 20.5276 6.11554C20.6703 5.97262 20.7506 5.77899 20.7506 5.57704V5.00374ZM20.0979 5.00374V5.57704C20.0979 5.60574 20.0864 5.63357 20.0662 5.65382C20.0458 5.67422 20.0181 5.68588 19.9891 5.68588H12.9041C12.8751 5.68588 12.8475 5.67437 12.827 5.65382C12.8066 5.63357 12.7952 5.60574 12.7952 5.57704V5.00374C12.7952 4.97475 12.8066 4.94722 12.827 4.92667C12.8474 4.90628 12.8751 4.89491 12.9041 4.89491H19.9891C20.0181 4.89491 20.0456 4.90628 20.0662 4.92667C20.0864 4.94707 20.0979 4.97475 20.0979 5.00374Z" fill="black"/>
<path fill-rule="evenodd" clip-rule="evenodd" d="M17.8762 12.1283H19.77C20.0296 12.1283 20.2786 12.0251 20.4623 11.8415C20.6459 11.658 20.7491 11.4088 20.7491 11.1492V10.6958C20.7491 10.4361 20.6459 10.1869 20.4623 10.0035C20.2788 9.81995 20.0296 9.7168 19.77 9.7168H1.05899C0.79937 9.7168 0.550369 9.81995 0.36668 10.0035C0.183106 10.187 0.0799561 10.4361 0.0799561 10.6958V11.1492C0.0799561 11.4088 0.183106 11.6578 0.36668 11.8415C0.550254 12.0251 0.799404 12.1283 1.05899 12.1283H11.1491C11.3292 12.1283 11.4755 11.982 11.4755 11.8019C11.4755 11.6218 11.3292 11.4756 11.1491 11.4756H1.05899C0.972453 11.4756 0.889552 11.4412 0.828216 11.3798C0.767026 11.3186 0.732642 11.2357 0.732642 11.1492V10.6958C0.732642 10.6093 0.767025 10.5261 0.828216 10.465C0.889552 10.4039 0.972453 10.3695 1.05899 10.3695H19.77C19.8566 10.3695 19.9395 10.4039 20.0008 10.465C20.062 10.5262 20.0964 10.6093 20.0964 10.6958V11.1492C20.0964 11.2357 20.062 11.3186 20.0008 11.3798C19.9395 11.4412 19.8566 11.4756 19.77 11.4756H17.8762C17.6961 11.4756 17.5498 11.6218 17.5498 11.8019C17.5498 11.982 17.6961 12.1283 17.8762 12.1283Z" fill="black"/>
</svg>
