<svg width="26" height="18" viewBox="0 0 26 18" fill="none" xmlns="http://www.w3.org/2000/svg">
<path d="M6.87831 3.58576H10.3187C10.8012 3.58576 11.2411 3.78308 11.5588 4.1009C11.8767 4.41871 12.074 4.85756 12.074 5.341V6.67302H14.1485V5.341C14.1485 4.85996 14.3458 4.42185 14.6636 4.1033L14.666 4.10091C14.9845 3.78402 15.4219 3.58672 15.903 3.58672H19.3434C19.8245 3.58672 20.2633 3.78404 20.5819 4.10185C20.9012 4.42113 21.0985 4.85941 21.0985 5.34195V6.67398H22.5793V2.4459C22.5793 2.12975 22.4495 1.84125 22.2402 1.63212C22.0311 1.42301 21.7425 1.29294 21.4264 1.29294H4.79421C4.47806 1.29294 4.18881 1.42282 3.97968 1.63212C3.77057 1.84123 3.6405 2.12975 3.6405 2.4459V6.67398H5.12138V5.34195C5.12138 4.86016 5.31869 4.42205 5.63651 4.1035C5.95579 3.78422 6.39407 3.58691 6.87661 3.58691L6.87831 3.58576ZM1.40295 11.667H24.8184V8.46014C24.8184 8.186 24.7067 7.93638 24.526 7.75654C24.3462 7.57672 24.0965 7.46415 23.8224 7.46415H2.39732C2.12318 7.46415 1.87356 7.5758 1.69372 7.75654C1.5139 7.93635 1.40133 8.186 1.40133 8.46014V11.667H1.40295ZM24.8184 12.4594H1.40295V13.0607C1.40295 13.3341 1.51552 13.5828 1.69534 13.7636C1.87442 13.9443 2.12406 14.056 2.39819 14.056H23.8232C24.0887 14.056 24.3312 13.9506 24.5095 13.7811L24.5261 13.7636C24.7069 13.5828 24.8185 13.3341 24.8185 13.0607L24.8184 12.4594ZM23.3715 6.6718H23.8224C24.3128 6.6718 24.7598 6.87298 25.0838 7.19632C25.4086 7.52204 25.61 7.96883 25.61 8.45943V13.06C25.61 13.5521 25.4088 13.9989 25.0855 14.3231L25.061 14.3462C24.7393 14.6561 24.3019 14.8477 23.8225 14.8477H22.7702V16.8936C22.7702 17.1123 22.5928 17.2897 22.3741 17.2897H20.7703C20.5967 17.2881 20.4383 17.174 20.39 16.999L19.7911 14.8477H6.42837L5.83013 16.999C5.78186 17.174 5.6225 17.289 5.44986 17.289L3.84607 17.2907C3.62739 17.2907 3.44997 17.1132 3.44997 16.8945V14.8486H2.39763C1.90721 14.8486 1.46022 14.6474 1.13616 14.3241C0.811346 14.0007 0.609985 13.553 0.609985 13.061V8.46037C0.609985 7.96995 0.811171 7.52297 1.1345 7.1989C1.46023 6.87409 1.90702 6.67273 2.39763 6.67273H2.84919V2.44465C2.84919 1.90909 3.06788 1.42249 3.41979 1.0706C3.77168 0.718707 4.25899 0.5 4.79455 0.5H21.4267C21.9623 0.5 22.4489 0.718689 22.8008 1.0706C23.1527 1.42251 23.3714 1.9098 23.3714 2.44465L23.3715 6.6718ZM21.9785 14.8473H20.6117L21.0704 16.497H21.9786L21.9785 14.8473ZM5.60953 14.8473H4.24341V16.497H5.15057L5.60953 14.8473ZM19.3439 4.37771H15.9035C15.638 4.37771 15.3972 4.48622 15.2244 4.65977C15.0494 4.8348 14.9416 5.07578 14.9416 5.34036V6.67239H20.3075V5.34036C20.3075 5.0758 20.199 4.8348 20.0255 4.66053C19.8512 4.48698 19.6094 4.37846 19.3449 4.37846L19.3439 4.37771ZM10.3185 4.37771H6.87803C6.61346 4.37771 6.37247 4.48622 6.19819 4.65977C6.02391 4.83406 5.91613 5.07505 5.91613 5.33961V6.67163H11.2821V5.33961C11.2821 5.07578 11.1735 4.8348 10.9993 4.66053C10.825 4.48624 10.584 4.37772 10.3202 4.37772L10.3185 4.37771Z" fill="black"/>
</svg>
