<svg width="11" height="18" viewBox="0 0 11 18" fill="none" xmlns="http://www.w3.org/2000/svg">
<path d="M5.48287 0.869995C2.45013 0.869995 0 3.3201 0 6.35288C0 6.72982 0.0343013 7.08958 0.102785 7.44945C0.514031 10.5678 4.42055 12.8467 5.51712 17.2844C6.5966 12.9152 11 9.694 11 6.35288H10.9657C10.9657 3.32013 8.51553 0.869995 5.48287 0.869995ZM5.48287 3.04592C7.21338 3.04592 8.61839 4.45097 8.61839 6.18144C8.61839 7.91191 7.21335 9.31696 5.48287 9.31696C3.7524 9.31696 2.34736 7.91191 2.34736 6.18144C2.34736 4.45097 3.75228 3.04592 5.48287 3.04592Z" fill="#0B68F2"/>
</svg>
