<svg width="18" height="19" viewBox="0 0 18 19" fill="none" xmlns="http://www.w3.org/2000/svg">
<path d="M17.8417 17.7984L0.685046 0.592223C0.569917 0.477616 0.39646 0.443752 0.247421 0.505182C0.097685 0.569135 0 0.714948 0 0.877426L0.00181414 18.1168C0.00181414 18.3389 0.178622 18.519 0.400928 18.519H17.5973C17.8196 18.519 18 18.339 18 18.1168C17.9997 17.9869 17.9369 17.8715 17.8417 17.7984ZM0.80258 17.7142V1.84829L2.73813 3.78922L1.77607 4.75424C1.62006 4.9111 1.62006 5.16703 1.77607 5.32366C1.85366 5.40146 1.95735 5.44162 2.06019 5.44162C2.16207 5.44162 2.26491 5.40146 2.3425 5.32366L3.30595 4.35838L5.02184 6.07918L4.0602 7.0443C3.90419 7.20215 3.90419 7.45599 4.0602 7.61258C4.13779 7.69135 4.24064 7.73054 4.34433 7.73054C4.44717 7.73054 4.55002 7.69121 4.62761 7.61258L5.58996 6.64885L7.29369 8.35692L6.33135 9.32345C6.17547 9.47948 6.17547 9.73469 6.33135 9.892C6.41061 9.97065 6.5136 10.01 6.61547 10.01C6.71832 10.01 6.82116 9.97065 6.89959 9.892L7.86194 8.92674L9.56639 10.6362L8.60351 11.6015C8.4493 11.7579 8.4493 12.0131 8.60351 12.1705C8.68277 12.2491 8.78576 12.2884 8.88944 12.2884C8.99229 12.2884 9.09248 12.2491 9.17273 12.1695L10.1339 11.2048L11.8393 12.9147L10.8773 13.8798C10.7203 14.0362 10.7203 14.2914 10.8773 14.4479C10.9549 14.5275 11.0576 14.5671 11.1611 14.5671C11.2641 14.5671 11.3658 14.5278 11.4434 14.4479L12.4063 13.4836L14.1117 15.1936L13.1491 16.1579C12.9921 16.3133 12.9921 16.5688 13.1491 16.7283C13.2267 16.8061 13.3301 16.8444 13.433 16.8444C13.535 16.8444 13.6373 16.8061 13.7154 16.7283L14.6787 15.7627L16.625 17.7144L0.80258 17.7142Z" fill="#0B68F2"/>
<path d="M3.52378 9.6463C3.40949 9.52959 3.23715 9.49587 3.08726 9.55842C2.93823 9.61999 2.83984 9.76622 2.83984 9.92995V15.2694C2.83984 15.4921 3.0193 15.6723 3.2416 15.6723H8.5717C8.794 15.6723 8.97442 15.4923 8.97442 15.2694C8.97442 15.1399 8.91176 15.0252 8.81673 14.9516L3.52378 9.6463ZM3.64324 14.8679L3.64142 10.9015L7.59863 14.8683L3.64324 14.8679Z" fill="#0B68F2"/>
</svg>
