<svg width="20" height="23" viewBox="0 0 20 23" fill="none" xmlns="http://www.w3.org/2000/svg">
<path d="M10.1037 1.27393C6.198 1.27393 3.02173 4.71364 3.02173 8.94331C3.02173 14.2595 9.4144 21.2438 9.68584 21.539C9.80151 21.663 9.95265 21.7256 10.1037 21.7256C10.2548 21.7256 10.4059 21.663 10.5216 21.539C10.793 21.2438 17.1857 14.2595 17.1857 8.94331C17.1857 4.71364 14.0094 1.27393 10.1037 1.27393ZM10.1037 20.1623C8.6944 18.5288 4.20206 13.0042 4.20206 8.94331C4.20206 5.41923 6.84954 2.55216 10.1037 2.55216C13.3579 2.55216 16.0054 5.41923 16.0054 8.94331C16.0054 13.0004 11.513 18.5288 10.1037 20.1623Z" fill="#0B68F2"/>
<path d="M10.1039 5.10889C8.15143 5.10889 6.5625 6.82938 6.5625 8.94358C6.5625 11.0578 8.15143 12.7783 10.1039 12.7783C12.0565 12.7783 13.6454 11.0578 13.6454 8.94358C13.6454 6.82938 12.0565 5.10889 10.1039 5.10889ZM10.1039 11.5C8.80187 11.5 7.74298 10.3535 7.74298 8.94358C7.74298 7.53369 8.80187 6.38712 10.1039 6.38712C11.406 6.38712 12.465 7.53369 12.465 8.94358C12.465 10.3535 11.406 11.5 10.1039 11.5Z" fill="#0B68F2"/>
</svg>
