<svg width="21" height="16" viewBox="0 0 21 16" fill="none" xmlns="http://www.w3.org/2000/svg">
<path d="M10.0879 0.753418C8.15009 0.753418 6.29172 1.51226 4.92152 2.86305C3.55127 4.21374 2.78149 6.04582 2.78149 7.95604C2.78149 9.86627 3.55127 11.6983 4.92152 13.049C6.29167 14.3998 8.15015 15.1586 10.0879 15.1586C11.3704 15.1586 12.6303 14.8258 13.7411 14.1937C14.8518 13.5615 15.7741 12.6523 16.4154 11.5573C17.0567 10.4624 17.3943 9.2203 17.3943 7.95604C17.3943 6.04577 16.6245 4.21379 15.2543 2.86305C13.8841 1.51226 12.0256 0.753418 10.0879 0.753418ZM13.7411 7.9704C13.7435 8.12695 13.6813 8.27777 13.5686 8.3882L11.1634 10.752C11.0148 10.8987 10.7982 10.9561 10.5951 10.9027C10.3921 10.8492 10.2333 10.693 10.1786 10.4929C10.1241 10.2927 10.182 10.0791 10.3305 9.93241L11.7391 8.54234H7.01924C6.81049 8.54234 6.61753 8.43252 6.51307 8.25427C6.4087 8.07591 6.4087 7.85625 6.51307 7.67801C6.61755 7.49975 6.81049 7.38993 7.01924 7.38993H11.7525L10.3306 5.98831C10.1818 5.84161 10.1237 5.62788 10.1782 5.42752C10.2327 5.22715 10.3914 5.0706 10.5946 5.01694C10.7979 4.96329 11.0148 5.02056 11.1635 5.16727L13.5688 7.53112C13.6797 7.63975 13.7417 7.78756 13.7412 7.9417L13.7411 7.9704Z" fill="#16A34A"/>
</svg>
