<svg width="14" height="16" viewBox="0 0 14 16" fill="none" xmlns="http://www.w3.org/2000/svg">
<path d="M1.38989 13.6602H3.63989V11.4102H1.38989V13.6602ZM4.13989 13.6602H6.63989V11.4102H4.13989V13.6602ZM1.38989 10.9102H3.63989V8.41015H1.38989V10.9102ZM4.13989 10.9102H6.63989V8.41015H4.13989V10.9102ZM1.38989 7.91015H3.63989V5.66016H1.38989V7.91015ZM7.13989 13.6602H9.63989V11.4102H7.13989V13.6602ZM4.13989 7.91015H6.63989V5.66016H4.13989V7.91015ZM10.1399 13.6602H12.3899V11.4102H10.1399V13.6602ZM7.13989 10.9102H9.63989V8.41015H7.13989V10.9102ZM4.38989 4.16015V1.91015C4.38989 1.84245 4.36385 1.78515 4.31177 1.73828C4.26489 1.6862 4.2076 1.66015 4.13989 1.66015H3.63989C3.57218 1.66015 3.51229 1.6862 3.4602 1.73828C3.41333 1.78515 3.38989 1.84245 3.38989 1.91015V4.16015C3.38989 4.22786 3.41333 4.28776 3.4602 4.33984C3.51229 4.38672 3.57218 4.41015 3.63989 4.41015H4.13989C4.2076 4.41015 4.26489 4.38672 4.31177 4.33984C4.36385 4.28776 4.38989 4.22786 4.38989 4.16015ZM10.1399 10.9102H12.3899V8.41015H10.1399V10.9102ZM7.13989 7.91015H9.63989V5.66016H7.13989V7.91015ZM10.1399 7.91015H12.3899V5.66016H10.1399V7.91015ZM10.3899 4.16015V1.91015C10.3899 1.84245 10.3639 1.78515 10.3118 1.73828C10.2649 1.6862 10.2076 1.66015 10.1399 1.66015H9.63989C9.57218 1.66015 9.51229 1.6862 9.4602 1.73828C9.41333 1.78515 9.38989 1.84245 9.38989 1.91015V4.16015C9.38989 4.22786 9.41333 4.28776 9.4602 4.33984C9.51229 4.38672 9.57218 4.41015 9.63989 4.41015H10.1399C10.2076 4.41015 10.2649 4.38672 10.3118 4.33984C10.3639 4.28776 10.3899 4.22786 10.3899 4.16015ZM13.3899 3.66015V13.6602C13.3899 13.931 13.2909 14.1654 13.093 14.3633C12.8951 14.5612 12.6607 14.6602 12.3899 14.6602H1.38989C1.11906 14.6602 0.884685 14.5612 0.686768 14.3633C0.488851 14.1654 0.389893 13.931 0.389893 13.6602V3.66015C0.389893 3.38932 0.488851 3.15495 0.686768 2.95703C0.884685 2.75911 1.11906 2.66015 1.38989 2.66015H2.38989V1.91015C2.38989 1.56641 2.51229 1.27214 2.75708 1.02734C3.00187 0.782552 3.29614 0.660156 3.63989 0.660156H4.13989C4.48364 0.660156 4.77791 0.782552 5.0227 1.02734C5.26749 1.27214 5.38989 1.56641 5.38989 1.91015V2.66015H8.38989V1.91015C8.38989 1.56641 8.51229 1.27214 8.75708 1.02734C9.00187 0.782552 9.29614 0.660156 9.63989 0.660156H10.1399C10.4837 0.660156 10.7779 0.782552 11.0227 1.02734C11.2675 1.27214 11.3899 1.56641 11.3899 1.91015V2.66015H12.3899C12.6607 2.66015 12.8951 2.75911 13.093 2.95703C13.2909 3.15495 13.3899 3.38932 13.3899 3.66015Z" fill="#16A34A"/>
</svg>
