<svg width="15" height="13" viewBox="0 0 15 13" fill="none" xmlns="http://www.w3.org/2000/svg">
<path d="M12.2599 1.37646L12.2594 5.81359C12.2594 6.03332 12.1721 6.24448 12.0161 6.39987L6.7312 11.6792L6.81231 11.7602C7.18496 12.1325 7.78903 12.1325 8.16168 11.7602L12.9341 6.99377C13.1135 6.81503 13.2142 6.57241 13.2142 6.31979V2.32976C13.2142 1.80307 12.7872 1.37646 12.2599 1.37646Z" fill="#16A34A"/>
<path d="M10.3507 0.42334H6.355C6.10211 0.42334 5.85924 0.523913 5.68031 0.702656L0.479439 5.89718C0.106789 6.26944 0.106789 6.87288 0.479439 7.24562L4.47505 11.237C4.8477 11.6093 5.45176 11.6093 5.82441 11.237L11.0253 6.04255C11.2043 5.86333 11.3049 5.62072 11.3049 5.36762V1.37664C11.3049 0.849941 10.8779 0.42334 10.3507 0.42334ZM8.6806 3.75988C8.28553 3.75988 7.96488 3.43957 7.96488 3.04491C7.96488 2.65024 8.28553 2.32994 8.6806 2.32994C9.07568 2.32994 9.39632 2.65024 9.39632 3.04491C9.39632 3.43957 9.07568 3.75988 8.6806 3.75988Z" fill="#16A34A"/>
</svg>
