<svg width="18" height="16" viewBox="0 0 18 16" fill="none" xmlns="http://www.w3.org/2000/svg">
<path d="M16.5266 1.49287C15.2525 0.378116 13.9217 -0.114882 12.5718 0.0224526C10.7916 0.206002 9.49922 1.43636 9.00034 1.99052C8.50153 1.43636 7.20917 0.206005 5.42893 0.0224526C4.07666 -0.11477 2.74825 0.378116 1.47408 1.49287C0.17279 2.63133 -0.27894 4.29861 0.166748 6.31453C1.03241 10.2279 5.1234 14.6311 8.92141 15.7371C8.97276 15.7521 9.02724 15.7521 9.07859 15.7371C12.8769 14.6311 16.9677 10.2279 17.8332 6.31453C18.2789 4.29848 17.8279 2.63127 16.5266 1.49287ZM4.98732 1.68709C4.20931 1.68709 3.40127 2.04905 2.58536 2.76314C1.76505 3.48077 1.50577 4.55296 1.81499 5.95029C1.84851 6.10195 1.75272 6.25198 1.60106 6.28551C1.5811 6.28991 1.56063 6.29217 1.54017 6.29217C1.40834 6.29204 1.29422 6.20039 1.26572 6.07158C0.908678 4.45866 1.22806 3.20307 2.21511 2.33946C3.13625 1.53345 4.06921 1.12453 4.98733 1.12453C5.14263 1.12453 5.26856 1.25046 5.26856 1.40576C5.26856 1.56106 5.14262 1.68709 4.98732 1.68709Z" fill="#E0E2E9"/>
</svg>
