<svg width="14" height="15" viewBox="0 0 14 15" fill="none" xmlns="http://www.w3.org/2000/svg">
<path d="M6.72754 4.62598C4.85254 4.62598 3.3584 6.14942 3.3584 7.99512C3.3584 9.87012 4.85254 11.3642 6.72754 11.3642C8.57324 11.3642 10.0967 9.87012 10.0967 7.99512C10.0967 6.14942 8.57324 4.62598 6.72754 4.62598ZM6.72754 10.1924C5.52637 10.1924 4.53027 9.22559 4.53027 7.99512C4.53027 6.79395 5.49707 5.82715 6.72754 5.82715C7.92871 5.82715 8.89551 6.79395 8.89551 7.99512C8.89551 9.22559 7.92871 10.1924 6.72754 10.1924ZM11.0049 4.50879C11.0049 4.06934 10.6533 3.71778 10.2139 3.71778C9.77441 3.71778 9.42285 4.06934 9.42285 4.50879C9.42285 4.94824 9.77441 5.29981 10.2139 5.29981C10.6533 5.29981 11.0049 4.94824 11.0049 4.50879ZM13.2314 5.29981C13.1729 4.24512 12.9385 3.30762 12.1768 2.5459C11.415 1.78418 10.4775 1.54981 9.42285 1.49121C8.33887 1.43262 5.08691 1.43262 4.00293 1.49121C2.94824 1.54981 2.04004 1.78418 1.24902 2.5459C0.487305 3.30762 0.25293 4.24512 0.194336 5.29981C0.135742 6.38379 0.135742 9.63574 0.194336 10.7197C0.25293 11.7744 0.487305 12.6826 1.24902 13.4736C2.04004 14.2353 2.94824 14.4697 4.00293 14.5283C5.08691 14.5869 8.33887 14.5869 9.42285 14.5283C10.4775 14.4697 11.415 14.2353 12.1768 13.4736C12.9385 12.6826 13.1729 11.7744 13.2314 10.7197C13.29 9.63574 13.29 6.38379 13.2314 5.29981ZM11.8252 11.8623C11.6201 12.4482 11.1514 12.8877 10.5947 13.1221C9.71582 13.4736 7.66504 13.3857 6.72754 13.3857C5.76074 13.3857 3.70996 13.4736 2.86035 13.1221C2.27441 12.8877 1.83496 12.4482 1.60059 11.8623C1.24902 11.0127 1.33691 8.96192 1.33691 7.99512C1.33691 7.05762 1.24902 5.00684 1.60059 4.12793C1.83496 3.57129 2.27441 3.13184 2.86035 2.89746C3.70996 2.5459 5.76074 2.63379 6.72754 2.63379C7.66504 2.63379 9.71582 2.5459 10.5947 2.89746C11.1514 3.10254 11.5908 3.57129 11.8252 4.12793C12.1768 5.00684 12.0889 7.05762 12.0889 7.99512C12.0889 8.96192 12.1768 11.0127 11.8252 11.8623Z" fill="#8DB8FE"/>
</svg>
