<svg width="16" height="14" viewBox="0 0 16 14" fill="none" xmlns="http://www.w3.org/2000/svg">
<path d="M0.659093 6.21951L6.13632 0.742172C6.29266 0.58582 6.50105 0.5 6.72324 0.5C6.94568 0.5 7.15394 0.585944 7.3103 0.742172L7.80758 1.23958C7.96381 1.39569 8.04988 1.6042 8.04988 1.82652C8.04988 2.04871 7.96381 2.26425 7.80758 2.42036L4.61226 5.62272H14.764C15.2217 5.62272 15.5833 5.98104 15.5833 6.43887V7.14208C15.5833 7.59991 15.2217 7.99437 14.764 7.99437H4.57601L7.80747 11.2146C7.96369 11.3709 8.04976 11.5738 8.04976 11.7961C8.04976 12.0182 7.96369 12.2239 7.80747 12.3802L7.31017 12.876C7.15383 13.0323 6.94557 13.1176 6.72312 13.1176C6.50092 13.1176 6.29254 13.0312 6.13619 12.8749L0.65897 7.39769C0.502248 7.24085 0.416059 7.03147 0.416675 6.80891C0.416182 6.5856 0.502248 6.37611 0.659093 6.21951Z" fill="#0B68F2"/>
</svg>
