<svg width="19" height="17" viewBox="0 0 19 17" fill="none" xmlns="http://www.w3.org/2000/svg">
<path fill-rule="evenodd" clip-rule="evenodd" d="M5.73315 7.08309C5.73315 5.22488 7.23953 3.71851 9.09774 3.71851C10.9559 3.71851 12.4623 5.22488 12.4623 7.08309C12.4623 8.9413 10.9559 10.4477 9.09774 10.4477C7.23953 10.4477 5.73315 8.9413 5.73315 7.08309ZM9.09774 4.78101C7.82633 4.78101 6.79565 5.81168 6.79565 7.08309C6.79565 8.3545 7.82633 9.38517 9.09774 9.38517C10.3691 9.38517 11.3998 8.3545 11.3998 7.08309C11.3998 5.81168 10.3691 4.78101 9.09774 4.78101Z" fill="#8DB8FE"/>
<path fill-rule="evenodd" clip-rule="evenodd" d="M3.09418 6.27344C3.34516 3.22859 5.8896 0.885254 8.94478 0.885254H9.25074C12.306 0.885254 14.8504 3.22859 15.1014 6.27344C15.2362 7.90909 14.731 9.53322 13.6921 10.8037L10.2969 14.9558C9.67716 15.7138 8.51836 15.7138 7.89857 14.9558L4.50348 10.8037C3.4646 9.53322 2.95936 7.90909 3.09418 6.27344ZM8.94478 1.94775C6.44256 1.94775 4.35865 3.86697 4.15309 6.36072C4.04088 7.72203 4.46138 9.07375 5.32601 10.1312L8.7211 14.2833C8.91577 14.5214 9.27974 14.5214 9.47442 14.2833L12.8695 10.1312C13.7342 9.07375 14.1547 7.72203 14.0425 6.36073C13.8369 3.86697 11.753 1.94775 9.25074 1.94775H8.94478Z" fill="#8DB8FE"/>
</svg>
