<svg width="20" height="18" viewBox="0 0 20 18" fill="none" xmlns="http://www.w3.org/2000/svg">
<path d="M13.75 15.75V14.25C13.75 13.4544 13.4339 12.6913 12.8713 12.1287C12.3087 11.5661 11.5456 11.25 10.75 11.25H4.75C3.95435 11.25 3.19129 11.5661 2.62868 12.1287C2.06607 12.6913 1.75 13.4544 1.75 14.25V15.75" stroke="#5E5F63" stroke-width="2" stroke-linecap="round" stroke-linejoin="round"/>
<path d="M7.75 8.25C9.40685 8.25 10.75 6.90685 10.75 5.25C10.75 3.59315 9.40685 2.25 7.75 2.25C6.09315 2.25 4.75 3.59315 4.75 5.25C4.75 6.90685 6.09315 8.25 7.75 8.25Z" stroke="#5E5F63" stroke-width="2" stroke-linecap="round" stroke-linejoin="round"/>
<path d="M18.25 15.7499V14.2499C18.2495 13.5852 18.0283 12.9395 17.621 12.4141C17.2138 11.8888 16.6436 11.5136 16 11.3474" stroke="#5E5F63" stroke-width="2" stroke-linecap="round" stroke-linejoin="round"/>
<path d="M13 2.34741C13.6453 2.51264 14.2173 2.88794 14.6257 3.41414C15.0342 3.94035 15.2559 4.58753 15.2559 5.25366C15.2559 5.91979 15.0342 6.56697 14.6257 7.09318C14.2173 7.61939 13.6453 7.99469 13 8.15991" stroke="#5E5F63" stroke-width="2" stroke-linecap="round" stroke-linejoin="round"/>
</svg>
