<svg width="16" height="13" viewBox="0 0 16 13" fill="none" xmlns="http://www.w3.org/2000/svg">
<path fill-rule="evenodd" clip-rule="evenodd" d="M0.336371 3.61293C0.102911 5.67355 0.113321 8.0501 0.438171 10.1024C0.617921 11.2379 1.59348 12.1085 2.7977 12.2079L4.05623 12.3119C6.68043 12.5286 9.3195 12.5286 11.9437 12.3119L13.2022 12.2079C14.4064 12.1085 15.382 11.2379 15.5617 10.1024C15.8866 8.0501 15.897 5.67369 15.6636 3.61305C15.6334 3.37416 15.5994 3.13559 15.5617 2.89741C15.382 1.76185 14.4064 0.891303 13.2022 0.791863L11.9437 0.687923C9.3195 0.471213 6.68043 0.471213 4.05623 0.687923L2.7977 0.791863C1.59348 0.891303 0.617921 1.76185 0.438171 2.89741C0.400481 3.13554 0.366541 3.37408 0.336371 3.61293ZM4.16448 1.87096C6.71665 1.6602 9.2833 1.6602 11.8354 1.87096L13.094 1.97489C13.7226 2.02681 14.2318 2.48124 14.3256 3.074C14.3354 3.13556 14.3449 3.19714 14.3541 3.25876L9.7199 5.70457C8.6503 6.26911 7.34961 6.26911 6.27994 5.70457L1.64583 3.25879C1.65505 3.19716 1.66453 3.13557 1.67427 3.074C1.7681 2.48124 2.27735 2.02681 2.90595 1.97489L4.16448 1.87096ZM14.507 4.53648C14.6687 6.33178 14.6082 8.1406 14.3256 9.9258C14.2318 10.5186 13.7226 10.973 13.094 11.0249L11.8354 11.1288C9.2833 11.3396 6.71665 11.3396 4.16448 11.1288L2.90595 11.0249C2.27735 10.973 1.7681 10.5186 1.67427 9.9258C1.3917 8.1406 1.33123 6.3318 1.49287 4.53651L5.67289 6.74263C7.12008 7.5064 8.8798 7.5064 10.327 6.74263L14.507 4.53648Z" fill="#8DB8FE"/>
</svg>
