<svg width="80" height="81" viewBox="0 0 80 81" fill="none" xmlns="http://www.w3.org/2000/svg">
<rect y="0.5" width="80" height="80" rx="40" fill="#8DB8FE" fill-opacity="0.2"/>
<path d="M37.1874 55.4913H22.627V50.7757C22.627 49.783 23.0406 48.8316 23.8265 48.2111C28.0871 44.6951 32.72 42.3786 33.6301 41.9236C33.7541 41.8822 33.7955 41.7581 33.7955 41.6341V39.1935C33.175 38.118 32.8028 36.9184 32.6373 35.8429C32.265 35.8016 31.7686 35.3052 31.2309 33.4024C30.569 31.0032 31.1895 30.5069 31.81 30.5069C31.8514 30.5069 31.8927 30.5069 31.9341 30.5069C31.4377 29.1418 31.4377 27.8181 31.7686 26.6185C32.0995 25.1708 32.8855 24.0125 33.7542 23.1025C34.2919 22.5234 34.9537 21.9857 35.6156 21.572C36.1533 21.1997 36.7738 20.8688 37.3943 20.662C37.932 20.4965 38.4698 20.3724 39.0489 20.3724C39.2971 20.3311 39.5039 20.3311 39.7521 20.3311C41.1999 20.3311 42.3167 20.7447 43.144 21.2411C44.5918 22.027 45.1295 23.1025 45.1295 23.1025C45.1295 23.1025 48.7697 23.3507 47.1564 30.9619C47.6528 31.1273 47.9837 31.7892 47.4046 33.8161C46.8669 35.7602 46.3291 36.2566 45.9568 36.2566C45.8327 36.2566 45.75 36.2152 45.6673 36.1739C45.5018 37.0425 45.2536 37.9526 44.84 38.8212C44.84 40.0622 44.84 41.2204 44.84 41.6754C44.84 41.7995 44.9227 41.8822 45.0054 41.965C45.4191 42.1718 46.6187 42.7923 48.2319 43.7023C48.1078 43.8264 47.9424 43.9505 47.8183 44.0746C46.7014 45.1501 46.1223 46.5565 46.1223 48.1697C46.1223 50.0725 46.7841 51.2721 47.4873 52.0167C47.0323 52.1408 46.66 52.389 46.3291 52.7199C45.8741 53.2163 45.6259 53.8367 45.6673 54.4986C45.6673 54.8709 45.75 55.2018 45.7914 55.5327H41.5721H37.1874V55.4913ZM53.6094 42.2545H52.203C51.9961 42.2545 51.8307 42.42 51.8307 42.6268V44.2814C50.7552 44.4469 49.9279 44.8192 49.266 45.4396C48.5628 46.1428 48.1905 47.0115 48.1905 48.087C48.1905 49.2866 48.5215 50.1553 49.2247 50.7757C49.9279 51.3962 51.0034 51.9753 52.4925 52.5958C53.113 52.844 53.5266 53.1335 53.7748 53.4231C54.023 53.7126 54.1471 54.0849 54.1471 54.5813C54.1471 54.995 54.023 55.3672 53.7748 55.6154C53.5266 55.8636 53.1957 56.0291 52.7407 56.0291C52.203 56.0291 51.7479 55.8636 51.417 55.4913C51.1275 55.2018 50.962 54.7881 50.9206 54.209C50.9206 54.0022 50.7138 53.7954 50.4656 53.7954L48.1905 53.8367C47.9424 53.8367 47.7355 54.0436 47.7355 54.2918C47.7769 55.4913 48.1905 56.4427 48.8938 57.1046C49.6797 57.8078 50.6725 58.2214 51.8307 58.3869V59.9588C51.8307 60.1656 51.9961 60.3311 52.203 60.3311H53.6094C53.8162 60.3311 53.9817 60.1656 53.9817 59.9588V58.3455C54.9331 58.1801 55.6776 57.8078 56.2981 57.2287C57.0013 56.5668 57.3322 55.6568 57.3322 54.5813C57.3322 53.4231 57.0013 52.5131 56.2981 51.8926C55.5949 51.2721 54.5194 50.6516 53.0303 50.0312C52.4098 49.7416 51.9548 49.4934 51.7479 49.2039C51.4998 48.9143 51.417 48.5834 51.417 48.1284C51.417 47.7147 51.5411 47.3424 51.7479 47.0529C51.9548 46.7633 52.2857 46.6392 52.7407 46.6392C53.1957 46.6392 53.5266 46.8047 53.8162 47.1356C54.023 47.4252 54.1471 47.7974 54.1885 48.2938C54.1885 48.5007 54.3953 48.6661 54.6435 48.6661L56.9186 48.6247C57.1668 48.6247 57.3736 48.4179 57.3736 48.1697C57.3322 47.177 57.0013 46.3497 56.4222 45.6465C55.8017 44.9433 55.0158 44.4882 54.023 44.2814V42.5441C54.023 42.42 53.8162 42.2545 53.6094 42.2545Z" fill="#0B68F2"/>
</svg>
