<svg width="16" height="16" viewBox="0 0 16 16" fill="none" xmlns="http://www.w3.org/2000/svg">
<path d="M15.1611 8.24512C15.1611 12.2588 11.9092 15.5107 7.89551 15.5107C7.13379 15.5107 6.40137 15.4228 5.72754 15.1885C6.02051 14.7197 6.45996 13.9287 6.63574 13.2842C6.72363 12.9619 7.0752 11.5556 7.0752 11.5556C7.30957 12.0244 8.0127 12.4053 8.74512 12.4053C10.9424 12.4053 12.5244 10.3838 12.5244 7.89356C12.5244 5.49121 10.5615 3.67481 8.04199 3.67481C4.90723 3.67481 3.2373 5.78418 3.2373 8.06934C3.2373 9.15332 3.79395 10.4717 4.70215 10.9111C4.84863 10.9697 4.93652 10.9404 4.96582 10.7939C4.96582 10.7061 5.1123 10.208 5.1709 9.97364C5.1709 9.91504 5.1709 9.82715 5.1123 9.76856C4.81934 9.417 4.58496 8.74317 4.58496 8.09864C4.58496 6.5166 5.78613 4.96387 7.86621 4.96387C9.62402 4.96387 10.8838 6.16504 10.8838 7.92285C10.8838 9.88574 9.8877 11.2334 8.59863 11.2334C7.89551 11.2334 7.36816 10.6475 7.51465 9.94434C7.71973 9.06543 8.12988 8.12793 8.12988 7.5127C8.12988 6.95606 7.83691 6.48731 7.22168 6.48731C6.48926 6.48731 5.90332 7.24903 5.90332 8.24512C5.90332 8.88965 6.1084 9.3291 6.1084 9.3291C6.1084 9.3291 5.40527 12.376 5.25879 12.9326C5.1123 13.5771 5.1709 14.456 5.22949 15.0127C2.53418 13.958 0.629883 11.3506 0.629883 8.24512C0.629883 4.23145 3.88184 0.979492 7.89551 0.979492C11.9092 0.979492 15.1611 4.23145 15.1611 8.24512Z" fill="#8DB8FE"/>
</svg>
