<svg width="76" height="76" viewBox="0 0 76 76" fill="none" xmlns="http://www.w3.org/2000/svg">
<g filter="url(#filter0_d_418_55)">
<rect x="18" y="8" width="40" height="40" rx="20" fill="white" shape-rendering="crispEdges"/>
<path d="M30.6591 27.2195L36.1363 21.7422C36.2927 21.5858 36.501 21.5 36.7232 21.5C36.9457 21.5 37.1539 21.5859 37.3103 21.7422L37.8076 22.2396C37.9638 22.3957 38.0499 22.6042 38.0499 22.8265C38.0499 23.0487 37.9638 23.2643 37.8076 23.4204L34.6123 26.6227H44.764C45.2217 26.6227 45.5833 26.981 45.5833 27.4389V28.1421C45.5833 28.5999 45.2217 28.9944 44.764 28.9944H34.576L37.8075 32.2146C37.9637 32.3709 38.0498 32.5738 38.0498 32.7961C38.0498 33.0182 37.9637 33.2239 37.8075 33.3802L37.3102 33.876C37.1538 34.0323 36.9456 34.1176 36.7231 34.1176C36.5009 34.1176 36.2925 34.0312 36.1362 33.8749L30.659 28.3977C30.5022 28.2408 30.4161 28.0315 30.4167 27.8089C30.4162 27.5856 30.5022 27.3761 30.6591 27.2195Z" fill="#0B68F2"/>
</g>
<defs>
<filter id="filter0_d_418_55" x="0" y="0" width="76" height="76" filterUnits="userSpaceOnUse" color-interpolation-filters="sRGB">
<feFlood flood-opacity="0" result="BackgroundImageFix"/>
<feColorMatrix in="SourceAlpha" type="matrix" values="0 0 0 0 0 0 0 0 0 0 0 0 0 0 0 0 0 0 127 0" result="hardAlpha"/>
<feOffset dy="10"/>
<feGaussianBlur stdDeviation="9"/>
<feComposite in2="hardAlpha" operator="out"/>
<feColorMatrix type="matrix" values="0 0 0 0 0 0 0 0 0 0 0 0 0 0 0 0 0 0 0.08 0"/>
<feBlend mode="normal" in2="BackgroundImageFix" result="effect1_dropShadow_418_55"/>
<feBlend mode="normal" in="SourceGraphic" in2="effect1_dropShadow_418_55" result="shape"/>
</filter>
</defs>
</svg>
