<svg width="16" height="14" viewBox="0 0 16 14" fill="none" xmlns="http://www.w3.org/2000/svg">
<path d="M15.3408 6.21951L9.86365 0.742172C9.7073 0.58582 9.49891 0.5 9.27672 0.5C9.05428 0.5 8.84602 0.585944 8.68966 0.742172L8.19238 1.23958C8.03615 1.39569 7.95008 1.6042 7.95008 1.82652C7.95008 2.04871 8.03615 2.26425 8.19238 2.42036L11.3878 5.62272H1.23599C0.778281 5.62272 0.416626 5.98104 0.416626 6.43887V7.14208C0.416626 7.59991 0.778281 7.99437 1.23599 7.99437H11.4239L8.1925 11.2146C8.03627 11.3709 7.9502 11.5738 7.9502 11.7961C7.9502 12.0182 8.03627 12.2239 8.1925 12.3802L8.68979 12.876C8.84614 13.0323 9.0544 13.1176 9.27684 13.1176C9.49904 13.1176 9.70742 13.0312 9.86378 12.8749L15.341 7.39769C15.4977 7.24085 15.5839 7.03147 15.5833 6.80891C15.5838 6.5856 15.4977 6.37611 15.3408 6.21951Z" fill="white"/>
</svg>
