<svg width="20" height="20" viewBox="0 0 20 20" fill="none" xmlns="http://www.w3.org/2000/svg">
<path d="M19.6129 18.7351L1.50313 0.623419C1.38161 0.502779 1.19851 0.467133 1.0412 0.531796C0.883141 0.599115 0.780029 0.752603 0.780029 0.923632L0.781944 19.0704C0.781944 19.3041 0.968575 19.4937 1.20323 19.4937H19.355C19.5896 19.4937 19.78 19.3042 19.78 19.0704C19.7797 18.9336 19.7134 18.8121 19.6129 18.7351ZM1.6272 18.6466V1.94559L3.67028 3.98867L2.65477 5.00449C2.49009 5.16961 2.49009 5.43901 2.65477 5.60388C2.73667 5.68578 2.84612 5.72805 2.95467 5.72805C3.06221 5.72805 3.17077 5.68578 3.25267 5.60388L4.26964 4.5878L6.08086 6.39916L5.0658 7.41508C4.90112 7.58124 4.90112 7.84844 5.0658 8.01327C5.1477 8.09619 5.25626 8.13744 5.36571 8.13744C5.47426 8.13744 5.58283 8.09604 5.66473 8.01327L6.68054 6.99881L8.47892 8.79678L7.46312 9.81418C7.29858 9.97843 7.29858 10.2471 7.46312 10.4127C7.54678 10.4954 7.6555 10.5368 7.76303 10.5368C7.87159 10.5368 7.98014 10.4954 8.06293 10.4127L9.07874 9.39659L10.8779 11.196L9.86151 12.2121C9.69874 12.3768 9.69874 12.6454 9.86151 12.8111C9.94518 12.8938 10.0539 12.9352 10.1633 12.9352C10.2719 12.9352 10.3776 12.8938 10.4624 12.81L11.4769 11.7945L13.2771 13.5945L12.2616 14.6103C12.0959 14.775 12.0959 15.0437 12.2616 15.2083C12.3435 15.2921 12.4519 15.3338 12.5612 15.3338C12.6699 15.3338 12.7773 15.2925 12.8592 15.2083L13.8756 14.1933L15.6757 15.9933L14.6596 17.0084C14.4939 17.172 14.4939 17.4408 14.6596 17.6088C14.7415 17.6907 14.8507 17.731 14.9593 17.731C15.067 17.731 15.175 17.6907 15.2574 17.6088L16.2742 16.5924L18.3286 18.6468L1.6272 18.6466Z" fill="black"/>
<path d="M4.49959 10.154C4.37895 10.0311 4.19703 9.9956 4.03881 10.0614C3.88151 10.1263 3.77765 10.2802 3.77765 10.4525V16.073C3.77765 16.3075 3.96708 16.4972 4.20173 16.4972H9.82795C10.0626 16.4972 10.253 16.3077 10.253 16.073C10.253 15.9367 10.1869 15.8159 10.0866 15.7385L4.49959 10.154ZM4.62568 15.6504L4.62376 11.4752L8.80082 15.6508L4.62568 15.6504Z" fill="black"/>
</svg>
