<svg width="15" height="12" viewBox="0 0 15 12" fill="none" xmlns="http://www.w3.org/2000/svg">
<path d="M13.9001 2.24089C14.0668 2.40756 14.1501 2.60994 14.1501 2.84804C14.1501 3.08613 14.0668 3.28851 13.9001 3.45518L7.43583 9.91947L6.22154 11.1338C6.05487 11.3004 5.85249 11.3838 5.6144 11.3838C5.3763 11.3838 5.17392 11.3004 5.00725 11.1338L3.79297 9.91947L0.560822 6.68732C0.394155 6.52066 0.310822 6.31828 0.310822 6.08018C0.310822 5.84208 0.394155 5.6397 0.560822 5.47304L1.77511 4.25875C1.94178 4.09208 2.14416 4.00875 2.38225 4.00875C2.62035 4.00875 2.82273 4.09208 2.9894 4.25875L5.6144 6.89268L11.4715 1.02661C11.6382 0.859945 11.8406 0.776611 12.0787 0.776611C12.3168 0.776611 12.5192 0.859945 12.6858 1.02661L13.9001 2.24089Z" fill="#0B68F2"/>
</svg>
