<svg width="16" height="14" viewBox="0 0 16 14" fill="none" xmlns="http://www.w3.org/2000/svg">
<path d="M14.0166 3.52294C14.6025 3.08349 15.1299 2.55615 15.54 1.94091C15.0127 2.17529 14.3975 2.35107 13.7822 2.40966C14.4268 2.0288 14.8955 1.44287 15.1299 0.710449C14.5439 1.06201 13.8701 1.32568 13.1963 1.47216C12.6104 0.856933 11.8193 0.505371 10.9404 0.505371C9.24121 0.505371 7.86426 1.88232 7.86426 3.58154C7.86426 3.81591 7.89355 4.05029 7.95215 4.28466C5.40332 4.13818 3.11816 2.90771 1.59473 1.06201C1.33105 1.50146 1.18457 2.0288 1.18457 2.61474C1.18457 3.66943 1.71191 4.60693 2.56152 5.16357C2.06348 5.13427 1.56543 5.01709 1.15527 4.78271V4.81201C1.15527 6.30615 2.20996 7.53662 3.61621 7.82959C3.38184 7.88818 3.08887 7.94677 2.8252 7.94677C2.62012 7.94677 2.44434 7.91748 2.23926 7.88818C2.62012 9.11865 3.7627 9.99755 5.11035 10.0269C4.05566 10.8471 2.7373 11.3452 1.30176 11.3452C1.03809 11.3452 0.803711 11.3159 0.569336 11.2866C1.91699 12.1655 3.52832 12.6636 5.28613 12.6636C10.9404 12.6636 14.0166 8.00537 14.0166 3.9331C14.0166 3.78662 14.0166 3.66943 14.0166 3.52294Z" fill="#8DB8FE"/>
</svg>
