<svg width="17" height="13" viewBox="0 0 17 13" fill="none" xmlns="http://www.w3.org/2000/svg">
<path d="M16.5693 3.23193C16.9209 4.4624 16.9209 7.09912 16.9209 7.09912C16.9209 7.09912 16.9209 9.70654 16.5693 10.9663C16.3936 11.6694 15.8369 12.1968 15.1631 12.3725C13.9033 12.6948 8.92285 12.6948 8.92285 12.6948C8.92285 12.6948 3.91309 12.6948 2.65332 12.3725C1.97949 12.1968 1.42285 11.6694 1.24707 10.9663C0.895508 9.70654 0.895508 7.09912 0.895508 7.09912C0.895508 7.09912 0.895508 4.4624 1.24707 3.23193C1.42285 2.5288 1.97949 1.97216 2.65332 1.79638C3.91309 1.44482 8.92285 1.44482 8.92285 1.44482C8.92285 1.44482 13.9033 1.44482 15.1631 1.79638C15.8369 1.97216 16.3936 2.5288 16.5693 3.23193ZM7.28223 9.47216L11.4424 7.09912L7.28223 4.72607V9.47216Z" fill="#8DB8FE"/>
</svg>
